<svg width="45" height="46" viewBox="0 0 45 46" fill="none" xmlns="http://www.w3.org/2000/svg">
<g clip-path="url(#clip0_9_90)">
<path d="M3.83922 2.94055H0.937256V41.1676C0.937256 41.9475 1.243 42.6954 1.78722 43.2469C2.33144 43.7983 3.06957 44.1081 3.83922 44.1081H41.5647V41.1676H3.83922V2.94055Z" fill="#FBCECE"/>
<path d="M41.5647 13.2324H31.4078V16.173H36.6169L25.6039 27.3323L19.3792 21.0102C19.2443 20.8723 19.0838 20.763 18.907 20.6883C18.7302 20.6137 18.5406 20.5752 18.349 20.5752C18.1575 20.5752 17.9678 20.6137 17.791 20.6883C17.6142 20.763 17.4537 20.8723 17.3188 21.0102L6.74118 31.7431L8.78706 33.8162L18.349 24.1271L24.5737 30.4493C24.7086 30.5871 24.8691 30.6965 25.0459 30.7711C25.2227 30.8458 25.4124 30.8842 25.6039 30.8842C25.7955 30.8842 25.9851 30.8458 26.1619 30.7711C26.3388 30.6965 26.4992 30.5871 26.6341 30.4493L38.6627 18.246V23.5243H41.5647V13.2324Z" fill="#FBCECE"/>
</g>
<path d="M3.25 7.15126C3.25 6.4609 2.69036 5.90126 2 5.90126C1.30964 5.90126 0.75 6.4609 0.75 7.15126H3.25ZM3.25 46L3.25 7.15126H0.75L0.75 46H3.25Z" fill="#D6354B"/>
<path d="M2.53334 43.3588H1.28334V45.8588H2.53334V43.3588ZM42 45.8588C42.6904 45.8588 43.25 45.2992 43.25 44.6088C43.25 43.9184 42.6904 43.3588 42 43.3588V45.8588ZM2.53334 45.8588H42V43.3588H2.53334V45.8588Z" fill="#D6354B"/>
<defs>
<clipPath id="clip0_9_90">
<rect width="39.4667" height="39.9914" fill="white" transform="translate(5)"/>
</clipPath>
</defs>
</svg>
